<?xml version="1.0" encoding="UTF-8"?>
<svg version="1.1" xmlns="http://www.w3.org/2000/svg" width="512" height="512">
<path d="M0 0 C1.34723145 -0.00287018 1.34723145 -0.00287018 2.72167969 -0.00579834 C4.60742475 -0.00715022 6.49317944 -0.00352406 8.37890625 0.00488281 C11.24240298 0.01559658 14.10527246 0.00495335 16.96875 -0.0078125 C18.81250137 -0.00649073 20.65625235 -0.00392797 22.5 0 C23.34401367 -0.00404846 24.18802734 -0.00809692 25.05761719 -0.01226807 C34.40758306 0.06040127 42.12920793 1.31001977 49.06640625 8.0234375 C56.94453495 16.41142421 57.69020704 24.15524269 57.59057617 35.29101562 C57.59101425 36.57965515 57.59145233 37.86829468 57.59190369 39.19598389 C57.59275996 42.70792249 57.57519457 46.21955001 57.55418181 49.7314167 C57.53535305 53.40959191 57.53365971 57.08777524 57.53010559 60.76599121 C57.52080325 67.7214891 57.49621419 74.67684454 57.46605712 81.63227987 C57.43245651 89.55490636 57.41601291 97.47753985 57.40097082 105.40021992 C57.36966286 121.6887715 57.31693788 137.97718003 57.25 154.265625 C57.90653533 154.26378141 58.56307066 154.26193783 59.239501 154.26003838 C75.24040067 154.21580201 91.24127897 154.18274059 107.24222469 154.16200066 C114.98027179 154.1517035 122.71827799 154.1376731 130.45629883 154.11474609 C137.20351695 154.09476433 143.95070544 154.08189723 150.69795233 154.07744801 C154.26805738 154.07484871 157.83807766 154.068772 161.40815544 154.05416489 C165.40096618 154.0379618 169.39363107 154.03764838 173.38647461 154.03857422 C174.5603624 154.03138367 175.73425018 154.02419312 176.94371033 154.01678467 C188.41841917 154.04552197 196.34943334 155.63391159 204.75390625 163.7109375 C211.11569626 170.66143047 211.70379593 178.29302017 211.6484375 187.23046875 C211.65130768 188.26321426 211.65417786 189.29595978 211.65713501 190.36000061 C211.65916755 192.53419547 211.65369466 194.70840895 211.64111328 196.88256836 C211.62506509 200.18971135 211.64098178 203.49562928 211.66015625 206.80273438 C211.65817336 208.92448184 211.65432873 211.04622854 211.6484375 213.16796875 C211.65451019 214.14636215 211.66058289 215.12475555 211.6668396 216.13279724 C211.57209554 225.49545797 209.63854376 232.65518849 203.15234375 239.5390625 C197.62058122 244.55967655 192.08993774 246.39283249 184.7197876 246.38587952 C183.03291588 246.38794151 183.03291588 246.38794151 181.31196594 246.39004517 C180.08269882 246.38644989 178.8534317 246.38285461 177.58691406 246.37915039 C176.28910507 246.37929642 174.99129608 246.37944244 173.65415955 246.3795929 C170.09871082 246.37987978 166.54329584 246.37400066 162.98785496 246.36701894 C159.27093743 246.36076725 155.55401914 246.36018016 151.83709717 246.35899353 C144.80007022 246.35588557 137.7630588 246.34767939 130.72603869 246.33764404 C122.71400862 246.32646629 114.70197781 246.32096826 106.68994188 246.31594861 C90.20995216 246.30549634 73.72997806 246.28790725 57.25 246.265625 C57.25368717 246.93577794 57.25737434 247.60593088 57.26117325 248.29639149 C57.34970188 264.64011827 57.41579565 280.98376862 57.45724869 297.32767963 C57.47783046 305.23164318 57.50586656 313.13544618 57.55175781 321.03930664 C57.59176057 327.93230607 57.61746465 334.82518918 57.62635398 341.71830148 C57.63154615 345.36459177 57.64365657 349.01054941 57.67292023 352.65673256 C57.7054057 356.73785471 57.70595086 360.818407 57.70410156 364.8996582 C57.71848267 366.09440765 57.73286377 367.2891571 57.74768066 368.52011108 C57.70299963 377.66806186 56.32867264 386.1789405 50.0625 393.203125 C42.64066901 399.77118182 34.94918232 400.87029525 25.3125 400.796875 C24.19238525 400.8007019 23.07227051 400.80452881 21.91821289 400.80847168 C19.561677 400.81118072 17.20511051 400.80389065 14.84863281 400.78710938 C11.2603798 400.76568697 7.67412891 400.78694728 4.0859375 400.8125 C1.78645395 400.80985655 -0.51302836 400.80473121 -2.8125 400.796875 C-4.4066272 400.80902039 -4.4066272 400.80902039 -6.03295898 400.82141113 C-13.88108094 400.7235675 -20.13113342 399.24586807 -26.2734375 394.1875 C-26.88445312 393.47078125 -27.49546875 392.7540625 -28.125 392.015625 C-29.06472656 390.95601563 -29.06472656 390.95601563 -30.0234375 389.875 C-35.10208996 382.1995705 -35.17004978 375.10012607 -35.09057617 366.1484375 C-35.09101425 364.8500444 -35.09145233 363.55165131 -35.09190369 362.21391296 C-35.09276002 358.6751167 -35.07519355 355.13662911 -35.05418181 351.59790421 C-35.03535416 347.89170165 -35.0336598 344.18549105 -35.03010559 340.47924805 C-35.02080292 333.47062673 -34.99621342 326.46214677 -34.96605712 319.45358753 C-34.93245752 311.47050255 -34.91601317 303.48741061 -34.90097082 295.50427246 C-34.86966213 279.09130739 -34.81693651 262.67848427 -34.75 246.265625 C-35.37376935 246.27170053 -35.9975387 246.27777605 -36.64021015 246.28403568 C-51.85731657 246.4318703 -67.07446683 246.57358465 -82.29169178 246.7085886 C-89.65079122 246.77402268 -97.00986136 246.84148542 -104.36889648 246.91381836 C-110.78722188 246.97689969 -117.20556974 247.03607847 -123.62397307 247.09068054 C-127.01864024 247.11969274 -130.4132656 247.15058463 -133.80787086 247.18615913 C-137.60862313 247.22500617 -141.40937711 247.25695581 -145.21020508 247.28735352 C-146.87609428 247.30677254 -146.87609428 247.30677254 -148.57563782 247.32658386 C-171.6972722 247.48158849 -171.6972722 247.48158849 -180.82421875 239.4375 C-187.99475239 231.80095684 -189.20961102 224.17509975 -189.1484375 214.046875 C-189.15274277 212.46090515 -189.15274277 212.46090515 -189.15713501 210.84289551 C-189.15916772 208.61742616 -189.15369365 206.39193862 -189.14111328 204.16650391 C-189.12504896 200.77595763 -189.14098972 197.38660331 -189.16015625 193.99609375 C-189.15817368 191.82551822 -189.15432972 189.65494343 -189.1484375 187.484375 C-189.15754654 185.9762323 -189.15754654 185.9762323 -189.1668396 184.43762207 C-189.0820487 175.87834644 -187.21539688 169.0973711 -181.75 162.265625 C-174.68034052 156.17458187 -167.41537814 154.13632151 -158.13113403 154.14537048 C-156.49062325 154.14330849 -156.49062325 154.14330849 -154.81697083 154.14120483 C-153.0399604 154.14659775 -153.0399604 154.14659775 -151.22705078 154.15209961 C-149.96796402 154.15195358 -148.70887726 154.15180756 -147.41163635 154.1516571 C-143.97200431 154.15137101 -140.53240736 154.15723731 -137.09278345 154.16423106 C-133.49332515 154.17049594 -129.89386599 154.17107088 -126.29440308 154.17225647 C-119.48410465 154.17536055 -112.67382234 154.18356148 -105.86353099 154.19360596 C-98.107798 154.20479578 -90.35206422 154.21028477 -82.59632516 154.21530139 C-66.64754078 154.22574488 -50.69877247 154.24332642 -34.75 154.265625 C-34.75276538 153.59878221 -34.75553076 152.93193941 -34.75837994 152.24488926 C-34.82473114 135.99364563 -34.87432493 119.74244509 -34.90543652 103.49109745 C-34.92088306 95.63195483 -34.94193006 87.77290281 -34.97631836 79.91381836 C-35.00628871 73.06112446 -35.02559108 66.2084962 -35.03226548 59.35573858 C-35.03616487 55.72969681 -35.04528231 52.1038428 -35.06719017 48.4778614 C-35.09149047 44.42273881 -35.09196511 40.36793938 -35.09057617 36.31274414 C-35.101362 35.12015488 -35.11214783 33.92756561 -35.1232605 32.69883728 C-35.0878729 23.13433428 -33.59431964 14.3943839 -26.75 7.265625 C-18.90185347 0.79133344 -9.86300829 -0.04730968 0 0 Z " fill="#54616F" transform="translate(244.75,55.734375)"/>
</svg>
