<?xml version="1.0" encoding="UTF-8"?>
<svg version="1.1" xmlns="http://www.w3.org/2000/svg" width="512" height="512">
<path d="M0 0 C141.24 0 282.48 0 428 0 C428 187.79940962 428 187.79940962 421.3125 200.25 C420.96219727 200.919104 420.61189453 201.58820801 420.25097656 202.27758789 C411.89375379 217.77810381 398.61260522 228.4286997 381.8125 233.75 C373.70793842 236.1247608 365.79179985 236.14657741 357.40769958 236.14044189 C356.1375282 236.14341302 354.86735681 236.14638414 353.55869538 236.1494453 C350.0442443 236.15748255 346.52981369 236.15930303 343.01535451 236.16004276 C339.22034943 236.16189906 335.42535482 236.16944932 331.63035583 236.17617798 C323.33670786 236.18973889 315.04306474 236.19578262 306.74940753 236.20018864 C301.56634148 236.20295505 296.38327728 236.20719315 291.20021248 236.21169281 C276.83721121 236.22388293 262.47421143 236.2341825 248.1112051 236.2375679 C246.73326461 236.23789725 246.73326461 236.23789725 245.32748694 236.23823325 C243.94633097 236.23856067 243.94633097 236.23856067 242.53727287 236.2388947 C240.6715771 236.23933816 238.80588132 236.23978472 236.94018555 236.24023438 C235.55202412 236.24056652 235.55202412 236.24056652 234.13581903 236.24090537 C219.14982462 236.24485103 204.1638789 236.26229909 189.17790329 236.2855939 C173.77554312 236.30934178 158.37320735 236.32177133 142.97082859 236.32293582 C134.32965603 236.32385069 125.68854692 236.32955542 117.04739189 236.34775543 C109.68738864 236.36320292 102.32746844 236.3682496 94.96745204 236.36001733 C91.21683788 236.35612711 87.46639073 236.35696004 83.71579742 236.37107468 C79.63747475 236.38628135 75.55952368 236.37789899 71.48118591 236.36749268 C69.72855404 236.37957728 69.72855404 236.37957728 67.94051546 236.39190602 C56.77807485 236.3256594 45.67496359 234.64149878 35.75 229.3125 C34.74743164 228.78922119 34.74743164 228.78922119 33.72460938 228.25537109 C17.97945704 219.78569616 7.57117683 206.74443766 2.1875 189.6875 C-15.31006012 128.92324578 0 63.23337095 0 0 Z " fill="#54626F" transform="translate(42,234)"/>
<path d="M0 0 C4.13762476 3.59275236 5.94976555 6.87441387 8 12 C8 27.84 8 43.68 8 60 C64.1 60 120.2 60 178 60 C178 44.16 178 28.32 178 12 C181.81266147 4.37467706 184.18957635 0.44250296 191.875 -2.8125 C198.83970564 -5.11204228 204.38086579 -4.49726116 210.88671875 -1.33984375 C215.55442599 1.61953441 218.84046318 5.9484806 221 11 C221.24050903 13.34124756 221.24050903 13.34124756 221.22705078 15.95214844 C221.22689972 16.93286316 221.22674866 17.91357788 221.22659302 18.92401123 C221.21627045 19.97518127 221.20594788 21.02635132 221.1953125 22.109375 C221.19106766 23.73229462 221.19106766 23.73229462 221.18673706 25.38800049 C221.17554609 28.84211304 221.1504432 32.29596588 221.125 35.75 C221.11496881 38.09244417 221.1058432 40.43489241 221.09765625 42.77734375 C221.0756103 48.51831771 221.04214334 54.2591403 221 60 C221.7748877 59.98428955 222.54977539 59.9685791 223.34814453 59.95239258 C252.18024113 59.4444985 252.18024113 59.4444985 263 63 C263.88945312 63.2784375 264.77890625 63.556875 265.6953125 63.84375 C272.21792349 66.15758142 277.52199092 69.83174178 283 74 C284.010625 74.721875 285.02125 75.44375 286.0625 76.1875 C298.28790119 86.81978942 304.78020113 102.33808575 307 118 C307 127.24 307 136.48 307 146 C165.76 146 24.52 146 -121 146 C-121 113.12931034 -121 113.12931034 -118 104 C-117.7215625 103.11054688 -117.443125 102.22109375 -117.15625 101.3046875 C-114.84355039 94.78526705 -111.17437094 89.47052265 -107 84 C-106.236875 82.96875 -105.47375 81.9375 -104.6875 80.875 C-92.90219053 68.26745963 -76.96365643 60.47109484 -59.63500977 59.88647461 C-58.49862061 59.89171143 -57.36223145 59.89694824 -56.19140625 59.90234375 C-54.95068359 59.90556641 -53.70996094 59.90878906 -52.43164062 59.91210938 C-51.15482422 59.92048828 -49.87800781 59.92886719 -48.5625 59.9375 C-46.60666992 59.94426758 -46.60666992 59.94426758 -44.61132812 59.95117188 C-41.40750448 59.96290749 -38.20377637 59.97932637 -35 60 C-35.01110306 59.40388916 -35.02220612 58.80777832 -35.03364563 58.19360352 C-35.14464992 51.9640203 -35.21983695 45.73472006 -35.2746582 39.50439453 C-35.29973266 37.18233825 -35.33380092 34.86036035 -35.37719727 32.53857422 C-35.43815805 29.19218559 -35.46628149 25.84684447 -35.48828125 22.5 C-35.51408768 21.4694751 -35.5398941 20.4389502 -35.56648254 19.37719727 C-35.56940298 11.79558782 -33.78562962 6.98980282 -28.55683899 1.47900391 C-20.02673357 -6.25002956 -9.46580131 -5.41355192 0 0 Z " fill="#54616F" transform="translate(163,46)"/>
</svg>
