<?xml version="1.0" encoding="UTF-8"?>
<svg version="1.1" xmlns="http://www.w3.org/2000/svg" width="512" height="512">
<path d="M0 0 C0.97485352 0.19867676 1.94970703 0.39735352 2.95410156 0.60205078 C50.99902273 10.65218706 95.19347595 32.24879574 130.49975586 66.59692383 C132.56359956 68.52709628 134.79256034 70.23782168 137 72 C138.09809154 73.15466769 139.1624861 74.34249631 140.1875 75.5625 C142.1512211 77.87251171 144.12644722 80.13313755 146.21484375 82.33203125 C181.55068829 119.61506982 202.51918418 170.50640493 209 221 C209.08732895 221.66720566 209.1746579 222.33441132 209.26463318 223.02183533 C209.96087491 228.73820476 210.17456164 234.37742632 210.203125 240.1328125 C210.21018463 241.07916061 210.21724426 242.02550873 210.22451782 243.00053406 C210.45241099 282.51652112 210.45241099 282.51652112 207 299 C206.70198486 300.46228027 206.70198486 300.46228027 206.39794922 301.95410156 C196.54575995 349.05273222 175.55979251 392.15735483 142.5078125 427.28125 C140.73497467 429.20320503 139.06056591 431.11677239 137.41015625 433.13671875 C135.46130074 435.45197173 133.61689028 437.37801185 131.3125 439.3125 C128.30318744 441.86957821 125.39008138 444.49656708 122.5 447.1875 C89.24247051 477.05347016 47.13017529 496.39458716 3.5625 505.3125 C2.84360596 505.45985596 2.12471191 505.60721191 1.3840332 505.7590332 C-13.29160498 508.54840125 -27.81668838 509.34892619 -42.72729492 509.31567383 C-45.66688487 509.3125221 -48.6054558 509.33604926 -51.54492188 509.36132812 C-64.91806192 509.40598737 -77.81416711 508.20051542 -91 506 C-92.70555054 505.71781616 -92.70555054 505.71781616 -94.44555664 505.42993164 C-97.0412622 504.96367402 -99.61274939 504.4449418 -102.1875 503.875 C-103.57642456 503.56804199 -103.57642456 503.56804199 -104.9934082 503.25488281 C-138.16852023 495.54089209 -169.5454776 481.10858262 -197 461 C-197.57298828 460.58395508 -198.14597656 460.16791016 -198.73632812 459.73925781 C-206.29793619 454.2148153 -213.23654952 448.19792517 -220.02734375 441.76171875 C-222.01731577 439.88131657 -224.05585344 438.10349377 -226.17578125 436.37109375 C-228.45888878 434.45429393 -230.34823289 432.64711124 -232.25 430.375 C-234.19125892 428.08617944 -236.14372424 425.84865787 -238.2109375 423.671875 C-250.83695998 410.35121697 -260.89764839 394.88055353 -270 379 C-270.64364502 377.87754883 -270.64364502 377.87754883 -271.30029297 376.73242188 C-283.99673715 354.29130054 -292.37727501 329.97369762 -297.75 304.8125 C-297.94883789 303.88767822 -298.14767578 302.96285645 -298.35253906 302.01000977 C-301.64441382 285.8033142 -302.37530274 269.86962039 -302.3125 253.375 C-302.31034485 252.35676147 -302.3081897 251.33852295 -302.30596924 250.28942871 C-302.25627396 235.66752576 -301.95061242 221.36866068 -299 207 C-298.80132324 205.98744141 -298.60264648 204.97488281 -298.39794922 203.93164062 C-288.98216498 156.84566641 -267.39840662 113.96935007 -234.61328125 78.859375 C-232.80590247 76.88179463 -231.08608028 74.9133346 -229.39453125 72.84375 C-227.46827842 70.55612837 -225.65418745 68.65768994 -223.375 66.75 C-220.13925696 64.00232993 -217.03189284 61.15587856 -213.9375 58.25 C-180.49974776 27.81425591 -136.07440676 8.23304644 -92 0 C-91.19498047 -0.16226074 -90.38996094 -0.32452148 -89.56054688 -0.49169922 C-61.56934616 -5.96455505 -27.91127604 -5.8459259 0 0 Z M-202.6875 104.5 C-241.99288294 144.44162115 -261.64771841 200.30743415 -261.49264526 255.62350464 C-260.9774543 316.29060662 -235.09838594 369.73581402 -192.29296875 411.859375 C-150.76439579 450.62880938 -94.0216987 470.30394556 -37.62548828 468.90844727 C21.24456696 466.59161052 75.09439389 439.74560363 115 397 C155.37979462 350.96417032 172.24772845 293.62042359 169 233 C164.83748783 177.99879238 136.5881642 126.20314554 95.59375 89.8671875 C18.96320538 25.46983223 -91.77379188 19.4568215 -202.6875 104.5 Z " fill="#E4A691" transform="translate(302,3)"/>
<path d="M0 0 C6.28907375 3.97903085 11.29074004 9.70683911 16.46951294 14.99523926 C17.77834485 16.31340954 19.0882947 17.63047066 20.39930725 18.94647217 C23.82825388 22.39440758 27.24191054 25.85709559 30.65249634 29.32318115 C34.14285827 32.86491083 37.64761608 36.3923324 41.15115356 39.92102051 C48.00963989 46.83295112 54.85204275 53.76056835 61.68435669 60.69836426 C65.66567077 59.10260552 68.29639975 56.32146247 71.22805786 53.30236816 C71.77013885 52.75254776 72.31221985 52.20272736 72.87072754 51.63624573 C74.04541078 50.4439343 75.21787298 49.24943148 76.38835716 48.05299759 C78.24621213 46.15563848 80.1115658 44.26596516 81.97935486 42.37838745 C87.28846491 37.01132907 92.58794322 31.63491759 97.87210083 26.24328613 C101.10784215 22.94282218 104.35589547 19.65489859 107.6118412 16.37437057 C108.84562882 15.12639009 110.07473692 13.87376414 111.29887962 12.61632156 C125.40389723 -1.86683882 125.40389723 -1.86683882 136.12185669 -2.86413574 C141.61484591 -2.56591741 146.2669833 -0.52408265 150.68435669 2.69836426 C155.12792398 7.92489421 157.14694015 13.30661623 156.91952515 20.15065002 C155.90096986 31.18524127 146.81630097 38.20869886 139.38748169 45.48352051 C138.06931141 46.79235242 136.75225029 48.10230227 135.43624878 49.41331482 C131.98831336 52.84226145 128.52562536 56.25591811 125.05953979 59.66650391 C121.51781012 63.15686584 117.99038855 66.66162365 114.46170044 70.16516113 C107.54976982 77.02364746 100.6221526 83.86605032 93.68435669 90.69836426 C95.28011543 94.67967834 98.06125848 97.31040731 101.08035278 100.24206543 C101.63017319 100.78414642 102.17999359 101.32622742 102.74647522 101.88473511 C103.93878665 103.05941835 105.13328947 104.23188055 106.32972336 105.40236473 C108.22708247 107.26021969 110.11675579 109.12557337 112.0043335 110.99336243 C117.37139188 116.30247248 122.74780336 121.60195078 128.13943481 126.8861084 C131.43989876 130.12184972 134.72782236 133.36990304 138.00835037 136.62584877 C139.25633086 137.85963639 140.50895681 139.08874448 141.76639938 140.31288719 C156.24955977 154.4179048 156.24955977 154.4179048 157.24685669 165.13586426 C156.94863836 170.62885348 154.9068036 175.28099086 151.68435669 179.69836426 C146.45782674 184.14193155 141.07610472 186.16094772 134.23207092 185.93353271 C123.19747968 184.91497743 116.17402209 175.83030854 108.89920044 168.40148926 C107.59036853 167.08331897 106.28041867 165.76625786 104.96940613 164.45025635 C101.5404595 161.00232093 98.12680284 157.53963293 94.71621704 154.07354736 C91.22585511 150.53181769 87.7210973 147.00439612 84.21755981 143.47570801 C77.35907348 136.56377739 70.51667063 129.63616017 63.68435669 122.69836426 C59.70304261 124.294123 57.07231363 127.07526605 54.14065552 130.09436035 C53.59857452 130.64418076 53.05649353 131.19400116 52.49798584 131.76048279 C51.3233026 132.95279422 50.15084039 134.14729704 48.98035622 135.34373093 C47.12250125 137.24109004 45.25714758 139.13076335 43.38935852 141.01834106 C38.08024847 146.38539944 32.78077016 151.76181092 27.49661255 157.15344238 C24.26087123 160.45390633 21.01281791 163.74182993 17.75687218 167.02235794 C16.52308456 168.27033843 15.29397646 169.52296438 14.06983376 170.78040695 C-0.03518385 185.26356734 -0.03518385 185.26356734 -10.75314331 186.26086426 C-16.24613253 185.96264593 -20.89826992 183.92081117 -25.31564331 180.69836426 C-29.7592106 175.47183431 -31.77822677 170.09011229 -31.55081177 163.24607849 C-30.53225648 152.21148725 -21.44758759 145.18802966 -14.01876831 137.91320801 C-12.70059803 136.6043761 -11.38353691 135.29442624 -10.0675354 133.9834137 C-6.61959998 130.55446707 -3.15691198 127.14081041 0.30917358 123.73022461 C3.85090326 120.23986268 7.37832483 116.73510487 10.90701294 113.23156738 C17.81894355 106.37308105 24.74656078 99.53067819 31.68435669 92.69836426 C30.08859795 88.71705017 27.3074549 86.0863212 24.2883606 83.15466309 C23.73854019 82.61258209 23.18871979 82.0705011 22.62223816 81.51199341 C21.42992673 80.33731017 20.23542391 79.16484796 19.03899002 77.99436378 C17.14163091 76.13650882 15.25195759 74.27115515 13.36437988 72.40336609 C7.9973215 67.09425604 2.62091002 61.79477773 -2.77072144 56.51062012 C-6.07118538 53.2748788 -9.35910898 50.02682548 -12.63963699 46.77087975 C-13.88761748 45.53709212 -15.14024343 44.30798403 -16.397686 43.08384132 C-30.88084639 28.97882371 -30.88084639 28.97882371 -31.87814331 18.26086426 C-31.57992498 12.76787504 -29.53809022 8.11573765 -26.31564331 3.69836426 C-18.50838834 -2.93932139 -9.29160699 -4.35950062 0 0 Z " fill="#E4A691" transform="translate(193.31564331054688,164.3016357421875)"/>
</svg>
