<?xml version="1.0" encoding="UTF-8"?>
<svg version="1.1" xmlns="http://www.w3.org/2000/svg" width="512" height="512">
<path d="M0 0 C0.79096069 -0.00067474 1.58192139 -0.00134949 2.39685059 -0.00204468 C32.93087914 0.0390473 62.10217885 5.26787148 90.9375 15.25 C91.97898193 15.59901367 91.97898193 15.59901367 93.04150391 15.95507812 C125.41812077 26.83660975 155.3618132 45.03231457 181.9375 66.25 C182.8553125 66.97445312 183.773125 67.69890625 184.71875 68.4453125 C190.97322801 73.45967849 196.8767975 78.78857052 202.7265625 84.26171875 C204.78333005 86.1853722 206.85745184 88.08458417 208.9609375 89.95703125 C213.74128888 94.22005693 218.21362136 98.49463963 222.3359375 103.3984375 C223.91532644 105.2243652 225.5745697 106.88805574 227.3125 108.5625 C231.0353861 112.22734556 234.2745693 116.22278136 237.54296875 120.29296875 C239.99828381 123.32506256 242.52760991 126.28429399 245.0625 129.25 C246.69960392 131.24010446 248.32511177 133.23981862 249.9375 135.25 C250.659375 136.14460937 251.38125 137.03921875 252.125 137.9609375 C256.68057337 144.22485089 257.93439155 149.29421086 257.47265625 157.04296875 C256.66760121 161.86742267 255.02361234 164.53066806 251.9375 168.25 C251.11231393 169.32800464 250.29105534 170.40902132 249.47265625 171.4921875 C244.64420516 177.82591318 239.60925559 183.92034336 234.203125 189.7734375 C232.31554244 191.8367605 230.47133067 193.925108 228.63671875 196.03515625 C225.0010417 200.20077286 221.27392567 204.27208736 217.5 208.3125 C216.88318359 208.98087891 216.26636719 209.64925781 215.63085938 210.33789062 C211.87285033 214.36181498 207.96932436 218.07146404 203.78833008 221.65307617 C201.28311499 223.81461316 198.90102057 226.09884677 196.5 228.375 C189.10046198 235.24944846 181.0457391 241.24525873 172.9375 247.25 C172.34743164 247.6919873 171.75736328 248.13397461 171.14941406 248.58935547 C131.59521654 278.15686856 86.53560992 296.47026099 37.9375 304.25 C37.12200684 304.38422363 36.30651367 304.51844727 35.46630859 304.65673828 C-4.92626413 311.01756203 -47.56987956 304.96779138 -86.0625 292.25 C-86.8241748 292.00056641 -87.58584961 291.75113281 -88.37060547 291.49414062 C-131.95373946 276.98197361 -169.4180137 250.94412365 -203.0625 220.25 C-204.07504315 219.341915 -205.08808718 218.43438828 -206.1015625 217.52734375 C-211.19813496 212.94327578 -216.08344172 208.32968999 -220.49609375 203.06640625 C-222.06191916 201.25067355 -223.7115212 199.60057296 -225.4375 197.9375 C-229.1603861 194.27265444 -232.3995693 190.27721864 -235.66796875 186.20703125 C-238.12328381 183.17493744 -240.65260991 180.21570601 -243.1875 177.25 C-244.82460392 175.25989554 -246.45011177 173.26018138 -248.0625 171.25 C-248.784375 170.35539063 -249.50625 169.46078125 -250.25 168.5390625 C-254.80557337 162.27514911 -256.05939155 157.20578914 -255.59765625 149.45703125 C-254.79286286 144.63414532 -253.14873642 141.96827612 -250.0625 138.25 C-249.29550781 137.23808594 -248.52851563 136.22617188 -247.73828125 135.18359375 C-242.81541458 128.71050853 -237.62312196 122.46988828 -232.3125 116.3125 C-231.79429687 115.71042725 -231.27609375 115.10835449 -230.7421875 114.48803711 C-227.5775702 110.85806445 -224.26722391 107.44087407 -220.83642578 104.06298828 C-219.00758971 102.19388057 -217.3028256 100.25505847 -215.6015625 98.26953125 C-212.10952037 94.22790589 -208.35485344 90.56360756 -204.4375 86.9375 C-203.73657227 86.28652344 -203.03564453 85.63554687 -202.31347656 84.96484375 C-146.81591908 33.72857078 -76.4192801 0.05895624 0 0 Z M-68.0625 71.25 C-68.86945313 71.91386719 -69.67640625 72.57773438 -70.5078125 73.26171875 C-87.57091637 87.73058896 -98.69915709 107.6795248 -104.0625 129.25 C-104.30613281 130.17941406 -104.54976562 131.10882813 -104.80078125 132.06640625 C-110.82286521 160.21043127 -103.40233122 189.32517569 -88.37353516 213.29785156 C-70.73513373 239.56166121 -44.34875881 253.39761935 -14.203125 259.86328125 C15.46877649 263.51691091 43.56780064 255.73373301 67.15625 237.46484375 C68.0740625 236.73394531 68.991875 236.00304687 69.9375 235.25 C70.6696875 234.67378906 71.401875 234.09757813 72.15625 233.50390625 C90.96787837 217.93952325 102.09637851 194.72683647 106.9375 171.25 C107.12957031 170.33863281 107.32164062 169.42726563 107.51953125 168.48828125 C111.01318861 141.42059944 104.66206807 113.83327697 88.9609375 91.4296875 C87.02254745 88.96615592 85.0087841 86.60247181 82.9375 84.25 C82.27363281 83.44304687 81.60976563 82.63609375 80.92578125 81.8046875 C63.68899191 61.47738325 39.08296421 49.83392554 12.9375 46.25 C9.03642137 45.97045037 5.16015308 45.91522536 1.25 45.9375 C0.20199219 45.94313965 -0.84601563 45.9487793 -1.92578125 45.95458984 C-26.16383516 46.33051789 -49.80515582 55.17493096 -68.0625 71.25 Z " fill="#54616F" transform="translate(255.0625,102.75)"/>
<path d="M0 0 C0.92232422 0.67482422 0.92232422 0.67482422 1.86328125 1.36328125 C12.97491243 10.10968717 19.4924746 24.14291807 21.40625 37.92578125 C23.07371051 53.74770771 19.51222963 68.91318192 9.87109375 81.7265625 C0.06893921 93.63648722 -12.94150745 102.64752199 -28.61181641 104.27050781 C-46.5298477 105.39608339 -61.77247734 102.27098386 -75.9140625 90.59375 C-87.043032 80.16992182 -94.52711892 67.3065114 -95.30859375 51.8828125 C-95.85062455 34.7239193 -92.83761368 20.52428758 -81.5234375 7.05078125 C-70.71145984 -4.36878593 -56.77054025 -11.99418305 -40.8515625 -13.03125 C-25.39480396 -12.86186087 -12.49901158 -9.40447873 0 0 Z " fill="#54616F" transform="translate(293,210)"/>
</svg>
