<?xml version="1.0" encoding="UTF-8"?>
<svg version="1.1" xmlns="http://www.w3.org/2000/svg" width="512" height="512">
<path d="M0 0 C1.12809586 -0.00268387 2.25619171 -0.00536774 3.41847229 -0.00813293 C7.02780052 -0.0120282 10.63679892 0.00046494 14.24609375 0.015625 C15.47237488 0.0177298 16.69865601 0.01983459 17.96209717 0.02200317 C59.88948955 0.10680416 59.88948955 0.10680416 75.68359375 3.265625 C75.68359375 30.325625 75.68359375 57.385625 75.68359375 85.265625 C52.55859375 85.703125 52.55859375 85.703125 45.35107422 85.83374023 C17.28926881 84.99108603 17.28926881 84.99108603 -6.89453125 96.828125 C-17.06748282 107.88997525 -16.61441323 122.63251423 -16.73046875 136.875 C-16.74811279 138.16035645 -16.76575684 139.44571289 -16.78393555 140.77001953 C-16.84645156 145.51843328 -16.89301689 150.26704628 -16.94140625 155.015625 C-17.06515625 165.658125 -17.18890625 176.300625 -17.31640625 187.265625 C12.38359375 187.265625 42.08359375 187.265625 72.68359375 187.265625 C71.53481192 203.34857061 71.53481192 203.34857061 70.65209961 210.01513672 C70.55285722 210.78997469 70.45361483 211.56481266 70.35136509 212.36313057 C70.03738017 214.80768 69.71807432 217.25149645 69.3984375 219.6953125 C69.20052908 221.22985296 69.00297862 222.76443964 68.80578613 224.29907227 C68.08186648 229.91348074 67.35108704 235.527003 66.62109375 241.140625 C64.99171875 253.721875 63.36234375 266.303125 61.68359375 279.265625 C35.61359375 279.265625 9.54359375 279.265625 -17.31640625 279.265625 C-17.31640625 356.155625 -17.31640625 433.045625 -17.31640625 512.265625 C-48.66640625 512.265625 -80.01640625 512.265625 -112.31640625 512.265625 C-112.31640625 435.375625 -112.31640625 358.485625 -112.31640625 279.265625 C-138.05640625 279.265625 -163.79640625 279.265625 -190.31640625 279.265625 C-190.31640625 248.905625 -190.31640625 218.545625 -190.31640625 187.265625 C-164.57640625 187.265625 -138.83640625 187.265625 -112.31640625 187.265625 C-112.39526161 162.36140559 -112.39526161 162.36140559 -112.49658203 137.45727539 C-112.50561523 132.58288574 -112.50561523 132.58288574 -112.5072937 130.28343201 C-112.51031603 128.71583411 -112.51724502 127.14824011 -112.52755737 125.58067322 C-112.72980828 93.14585332 -106.58201748 60.13423035 -84.31640625 35.265625 C-83.5171875 34.37230469 -82.71796875 33.47898438 -81.89453125 32.55859375 C-60.71868541 10.1610645 -30.40115791 -0.11504018 0 0 Z " fill="#F7EFD8" transform="translate(313.31640625,-0.265625)"/>
</svg>
