<?xml version="1.0" encoding="UTF-8"?>
<svg version="1.1" xmlns="http://www.w3.org/2000/svg" width="512" height="512">
<path d="M0 0 C1.51808122 -0.010195 1.51808122 -0.010195 3.06683075 -0.02059597 C6.4623113 -0.03960549 9.85743229 -0.03712867 13.25296021 -0.03465271 C15.68566351 -0.04362784 18.11836253 -0.05383551 20.55105591 -0.06518555 C26.47569033 -0.08895752 32.40024028 -0.0983493 38.32491265 -0.10002268 C43.14120355 -0.10144888 47.95746493 -0.10761666 52.77374649 -0.11712456 C66.43246813 -0.14353923 80.0911191 -0.15738338 93.74986647 -0.15513314 C94.48597529 -0.15501327 95.22208412 -0.1548934 95.98049927 -0.1547699 C96.71750805 -0.15464726 97.45451683 -0.15452461 98.21385922 -0.15439826 C110.15907518 -0.15317881 122.10400748 -0.18189003 134.04914139 -0.224185 C146.31789836 -0.26728269 158.58651698 -0.28799524 170.85535157 -0.28540367 C177.74199602 -0.284408 184.62834305 -0.29263792 191.51491928 -0.32493782 C197.99107149 -0.35511842 204.46675773 -0.35424079 210.94294739 -0.33238792 C213.32015524 -0.32924647 215.69740203 -0.33636252 218.074543 -0.3544693 C221.31964328 -0.37758697 224.56256466 -0.36372955 227.80761719 -0.34057617 C228.74877188 -0.35600686 229.68992656 -0.37143755 230.65960109 -0.38733584 C236.46998955 -0.29569405 239.53183671 0.8366472 243.73380631 4.90006149 C245.32313781 6.73948674 246.22879319 8.29038091 246.86453247 10.6421051 C247.07552582 11.41388092 247.28651917 12.18565674 247.50390625 12.9808197 C248.41235025 17.15387414 249.13673547 21.31069096 249.69094849 25.54566956 C249.81687881 26.49682144 249.94280914 27.44797333 250.07255554 28.427948 C251.36648142 38.97729284 251.53653595 49.47256641 251.46829224 60.08863831 C251.46558319 61.08628204 251.46287415 62.08392578 251.46008301 63.11180115 C251.39414468 79.19128663 250.38897306 94.63193196 247.03079224 110.40113831 C246.84355591 111.32491272 246.65631958 112.24868713 246.46340942 113.20045471 C236.56928566 161.34673053 212.30041979 202.59305339 179.53079224 238.65113831 C178.77415283 239.49309753 178.77415283 239.49309753 178.00222778 240.35206604 C175.70295933 242.85011851 174.30618053 244.30934221 171.03079224 245.40113831 C142.98079224 217.35113831 114.93079224 189.30113831 86.03079224 160.40113831 C89.57806343 156.26265524 93.03897516 152.31874545 96.78079224 148.40113831 C104.18531508 140.30209138 110.15666617 131.21668319 115.03079224 121.40113831 C114.39210646 121.39967175 113.75342068 121.39820518 113.09538078 121.39669418 C97.54601713 121.35962291 81.99691449 121.30060422 66.44773674 121.21723557 C58.9282178 121.17744665 51.40880349 121.14505348 43.88919067 121.13014221 C37.33415468 121.11712484 30.77934892 121.09015829 24.2244426 121.04652524 C20.75444814 121.02391196 17.28473762 121.00822752 13.81466293 121.00925446 C9.93838949 121.01014001 6.06269554 120.9798793 2.18655396 120.94703674 C1.03928329 120.95206711 -0.10798737 120.95709747 -1.2900238 120.96228027 C-7.2980973 120.88342383 -11.37758592 120.71023166 -15.96920776 116.40113831 C-19.82967114 111.94478307 -19.40050325 107.17160145 -19.3732605 101.56544495 C-19.38012375 100.57948837 -19.386987 99.5935318 -19.39405823 98.57769775 C-19.41234304 95.32208307 -19.40848621 92.06694952 -19.40280151 88.81129456 C-19.4073625 86.5459477 -19.41266783 84.28060224 -19.41868591 82.01525879 C-19.42762035 77.26825844 -19.42519001 72.5214263 -19.41525269 67.77442932 C-19.40376294 61.69350437 -19.42397341 55.6131601 -19.45316982 49.53231144 C-19.47152263 44.85426144 -19.47124115 40.17635082 -19.4655323 35.49827385 C-19.46537898 33.25639977 -19.4714327 31.01451631 -19.48382378 28.77267647 C-19.49871403 25.6368233 -19.48807037 22.50204588 -19.47091675 19.3662262 C-19.48058472 18.44187775 -19.49025269 17.5175293 -19.50021362 16.56517029 C-19.43695906 11.03824996 -18.78928685 7.69604103 -14.96920776 3.40113831 C-10.29975638 -0.37979879 -5.73232729 -0.02816289 0 0 Z " fill="#F7EFD8" transform="translate(260.9692077636719,195.59886169433594)"/>
<path d="M0 0 C0.99864075 0.00304138 1.99728149 0.00608276 3.02618408 0.00921631 C19.09814895 0.08129365 34.56139499 1.00516965 50.3125 4.4375 C51.8279541 4.75895996 51.8279541 4.75895996 53.37402344 5.08691406 C91.35377809 13.34129288 126.68656899 29.46335491 157.3125 53.4375 C158.17746094 54.07558594 159.04242188 54.71367188 159.93359375 55.37109375 C160.73925781 55.97050781 161.54492188 56.56992187 162.375 57.1875 C163.06722656 57.69796875 163.75945312 58.2084375 164.47265625 58.734375 C167.51431966 61.55001247 169.08824773 64.17716745 169.81640625 68.26953125 C169.84541016 69.74486328 169.84541016 69.74486328 169.875 71.25 C169.91753906 72.22582031 169.96007812 73.20164062 170.00390625 74.20703125 C167.8716261 84.16971871 156.33176163 92.70810641 149.33984375 99.67578125 C147.97005002 101.04692415 146.60055314 102.41836366 145.2313385 103.79008484 C142.37255026 106.65180947 139.51020679 109.5099161 136.64526367 112.36547852 C132.97780418 116.02151195 129.319441 119.68649558 125.66367245 123.35421467 C122.84228068 126.18283752 120.01613786 129.00667472 117.18853951 131.82909203 C115.8375027 133.17879748 114.48794224 134.52998245 113.13990593 135.88268471 C111.25684596 137.77083392 109.36747616 139.65243689 107.47631836 141.5324707 C106.92397522 142.0888623 106.37163208 142.64525391 105.80255127 143.21850586 C101.12333585 147.84696123 97.38797532 150.86383362 90.6875 151.0625 C83.39299347 150.88371308 79.03854202 147.63433198 73.3125 143.4375 C44.15748535 124.41504782 8.94022145 117.41601109 -25.27783203 123.93066406 C-51.71991021 129.68767349 -74.01827002 141.94152234 -93.6875 160.4375 C-94.57308594 161.22640625 -94.57308594 161.22640625 -95.4765625 162.03125 C-104.83903615 170.72814495 -111.82569036 182.0502024 -117.78271484 193.24584961 C-119.52871074 196.5114166 -121.03439229 198.78439229 -123.6875 201.4375 C-152.7275 172.3975 -181.7675 143.3575 -211.6875 113.4375 C-206.0578621 103.30415179 -206.0578621 103.30415179 -203.55859375 100.296875 C-203.00445801 99.62519287 -202.45032227 98.95351074 -201.87939453 98.26147461 C-201.30044434 97.57706299 -200.72149414 96.89265137 -200.125 96.1875 C-199.5151123 95.45732666 -198.90522461 94.72715332 -198.27685547 93.97485352 C-192.62568765 87.26015204 -186.7486437 80.78262115 -180.6875 74.4375 C-179.62982422 73.31794922 -179.62982422 73.31794922 -178.55078125 72.17578125 C-173.31972361 66.77495297 -167.56649187 62.11190462 -161.6875 57.4375 C-160.61396889 56.56195076 -159.54107003 55.68562583 -158.46875 54.80859375 C-149.6394894 47.65053108 -140.37973391 41.36779475 -130.6875 35.4375 C-130.04619141 35.04320801 -129.40488281 34.64891602 -128.74414062 34.24267578 C-106.51940629 20.74086179 -81.40462423 11.25585594 -56.0625 5.625 C-55.24265625 5.44219482 -54.4228125 5.25938965 -53.578125 5.07104492 C-35.79327587 1.3947616 -18.13529536 -0.11825796 0 0 Z " fill="#F7EFD8" transform="translate(255.6875,-0.4375)"/>
<path d="M0 0 C2.45129442 2.45129442 3.54817725 3.73784527 5.0234375 6.66796875 C10.86482352 17.90952571 17.54995842 27.56433926 26 37 C26.46519043 37.52174805 26.93038086 38.04349609 27.40966797 38.58105469 C50.35319009 63.88012293 84.50530857 78.07563438 118.29394531 79.92797852 C141.73668117 80.71135041 166.64209354 75.63681219 186.984375 63.6875 C189 63 189 63 190.89660263 63.74353027 C193.1606361 65.09595638 194.80484049 66.55315724 196.66998291 68.41601562 C197.38227051 69.12266357 198.09455811 69.82931152 198.82843018 70.55737305 C199.59951111 71.33250244 200.37059204 72.10763184 201.16503906 72.90625 C201.9849231 73.72262939 202.80480713 74.53900879 203.64953613 75.38012695 C206.35995515 78.0817383 209.06298745 80.79060584 211.765625 83.5 C213.64291659 85.37594493 215.5205015 87.25159256 217.39837646 89.12695312 C221.33266647 93.05760675 225.26272513 96.99245414 229.19042969 100.9296875 C233.7355844 105.48574126 238.28791984 110.0345248 242.84402299 114.57962799 C246.75433526 118.48087606 250.66075126 122.3859934 254.56391311 126.29439545 C256.89581191 128.6294168 259.22943807 130.9626593 261.56580353 133.29321289 C264.16623929 135.88859726 266.76022381 138.49025821 269.35253906 141.09375 C270.13171692 141.86887939 270.91089478 142.64400879 271.71368408 143.44262695 C272.41469238 144.1492749 273.11570068 144.85592285 273.83795166 145.58398438 C274.45220127 146.19898804 275.06645088 146.8139917 275.69931412 147.44763184 C277 149 277 149 277 151 C275.35791016 152.35351562 275.35791016 152.35351562 273.0390625 153.90625 C272.18449463 154.48020508 271.32992676 155.05416016 270.44946289 155.64550781 C269.51739014 156.25749023 268.58531738 156.86947266 267.625 157.5 C266.66907959 158.1300293 265.71315918 158.76005859 264.72827148 159.40917969 C235.31797705 178.58503321 203.52278771 191.44117877 169 198 C168.18144531 198.16371094 167.36289062 198.32742188 166.51953125 198.49609375 C138.93311512 203.80286061 106.51588396 203.57047107 79 198 C78.0821875 197.81775879 77.164375 197.63551758 76.21875 197.44775391 C69.76719743 196.13618658 63.37709882 194.63355484 57 193 C56.25588867 192.81211914 55.51177734 192.62423828 54.74511719 192.43066406 C12.01643296 181.42984173 -25.29870227 157.05433727 -57 127 C-57.75410156 126.2884375 -58.50820312 125.576875 -59.28515625 124.84375 C-64.6736057 119.6159899 -69.33576665 113.87320263 -74 108 C-74.96972534 106.79791342 -75.93979165 105.59610185 -76.91015625 104.39453125 C-77.89904983 103.15934415 -78.88733928 101.92367312 -79.875 100.6875 C-80.33946533 100.11306152 -80.80393066 99.53862305 -81.2824707 98.94677734 C-81.72292725 98.39070801 -82.16338379 97.83463867 -82.6171875 97.26171875 C-83.19895752 96.53408325 -83.19895752 96.53408325 -83.79248047 95.79174805 C-85.44210167 93.34399835 -86.6799448 90.64011041 -88 88 C-58.96 58.96 -29.92 29.92 0 0 Z " fill="#F7EFD8" transform="translate(132,311)"/>
<path d="M0 0 C3.25495402 1.43203612 5.4515049 3.18539343 7.98042297 5.67262268 C9.15199196 6.81839027 9.15199196 6.81839027 10.347229 7.98730469 C11.61841583 9.24571167 11.61841583 9.24571167 12.9152832 10.52954102 C13.81480209 11.41270493 14.71432098 12.29586884 15.64109802 13.20579529 C18.6185091 16.13092134 21.58516386 19.06683106 24.55078125 22.00390625 C25.57356949 23.01597052 26.59637317 24.02801918 27.61919212 25.04005241 C31.87261094 29.25024503 36.1231503 33.46330968 40.36626911 37.68388462 C46.44178728 43.72690644 52.53363158 49.75232173 58.64959842 55.75441223 C62.9525088 59.97991521 67.23607246 64.22442242 71.50573796 68.48351234 C74.05505641 71.02552721 76.61203865 73.55851026 79.1899662 76.07153511 C82.0651861 78.8753856 84.89936885 81.7175185 87.73168945 84.56469727 C88.58926849 85.38946564 89.44684753 86.21423401 90.33041382 87.06399536 C95.85014231 92.70346033 95.85014231 92.70346033 96.28557587 96.47074699 C96.04059189 98.73985976 95.58745729 100.79907167 95 103 C94.91749776 105.0821698 94.86957405 107.16619771 94.8671875 109.25 C94.86589844 110.3534375 94.86460938 111.456875 94.86328125 112.59375 C94.86714844 113.7178125 94.87101562 114.841875 94.875 116 C94.87113281 117.1240625 94.86726563 118.248125 94.86328125 119.40625 C94.86457031 120.5096875 94.86585937 121.613125 94.8671875 122.75 C94.86887939 124.22726562 94.86887939 124.22726562 94.87060547 125.734375 C94.87043994 128.81062641 94.87043994 128.81062641 95.52963924 130.94837856 C96.40425174 134.64946922 96.60894588 136.99434116 94.59570694 140.31915474 C92.34757694 142.90068696 89.98265422 145.27635385 87.51635742 147.65063477 C86.6028804 148.56878464 85.68940338 149.48693451 84.74824524 150.4329071 C82.24959205 152.94294742 79.72118552 155.42089507 77.18592238 157.89388013 C74.53765645 160.48697151 71.91701986 163.10769891 69.29304504 165.72532654 C64.88637286 170.1136107 60.46182566 174.48314754 56.02416992 178.84008789 C49.75947442 184.99094185 43.52967508 191.17625483 37.30555952 197.3681289 C32.99670862 201.65209712 28.67965092 205.92779183 24.36102509 210.2019031 C23.31280773 211.2393892 22.26481859 212.27710592 21.21705413 213.31504941 C17.77647488 216.72270599 14.32659639 220.12064641 10.87182617 223.51391602 C9.99847626 224.37874603 9.12512634 225.24357605 8.22531128 226.13461304 C7.43018631 226.91253708 6.63506134 227.69046112 5.81584167 228.49195862 C5.12319812 229.17345757 4.43055456 229.85495653 3.71692181 230.55710697 C2 232 2 232 0 232 C-10.59022824 211.02153697 -18.19217509 188.99749091 -23 166 C-23.21027832 165.03126953 -23.42055664 164.06253906 -23.63720703 163.06445312 C-30.09982837 132.09708629 -29.74367834 96.87411921 -23 66 C-22.78037598 64.97374512 -22.56075195 63.94749023 -22.33447266 62.89013672 C-17.5165316 40.93491912 -10.05239201 20.10478401 0 0 Z " fill="#F7EFD8" transform="translate(27,140)"/>
</svg>
