<?xml version="1.0" encoding="UTF-8"?>
<svg version="1.1" xmlns="http://www.w3.org/2000/svg" width="512" height="512">
<path d="M0 0 C0.96988861 0.00182281 1.93977722 0.00364563 2.9390564 0.00552368 C17.29056055 0.05091691 31.25442918 0.5562653 45.375 3.3125 C46.72053955 3.55395752 46.72053955 3.55395752 48.09326172 3.80029297 C71.49085828 8.03406631 94.07984565 15.77001331 115.375 26.3125 C116.05981445 26.6513623 116.74462891 26.99022461 117.45019531 27.33935547 C139.10815617 38.20013907 159.2414926 52.47426281 176.49951172 69.46777344 C178.47668765 71.41251978 180.47419204 73.33496586 182.47265625 75.2578125 C190.88489277 83.42625899 198.44570488 91.85880771 205.375 101.3125 C205.79974609 101.88178223 206.22449219 102.45106445 206.66210938 103.03759766 C213.17896311 111.78013934 218.99937855 120.82825394 224.375 130.3125 C224.77187012 131.00375977 225.16874023 131.69501953 225.57763672 132.40722656 C247.03110249 170.10609739 256.85594934 212.80939341 256.6875 255.9375 C256.68476578 257.39233292 256.68476578 257.39233292 256.68197632 258.8765564 C256.63658309 273.22806055 256.1312347 287.19192918 253.375 301.3125 C253.21402832 302.20952637 253.05305664 303.10655273 252.88720703 304.03076172 C246.14046752 341.31605703 230.74387287 376.77197246 208.375 407.3125 C207.95895508 407.88548828 207.54291016 408.45847656 207.11425781 409.04882812 C201.56193955 416.64859127 195.50887523 423.61365597 189.0390625 430.4375 C186.39384282 433.22006509 186.39384282 433.22006509 184.2421875 435.9921875 C182.56010191 438.08247797 180.92375318 439.72121992 178.875 441.4375 C176.4608014 443.48912665 174.11328071 445.56221382 171.8203125 447.75 C158.2329898 460.69747648 142.60935291 470.98466762 126.375 480.3125 C125.64265137 480.7362793 124.91030273 481.16005859 124.15576172 481.59667969 C86.59295628 503.072931 43.74986886 512.79294847 0.75 512.625 C-0.70483292 512.62226578 -0.70483292 512.62226578 -2.1890564 512.61947632 C-16.54056055 512.57408309 -30.50442918 512.0687347 -44.625 509.3125 C-45.52202637 509.15152832 -46.41905273 508.99055664 -47.34326172 508.82470703 C-96.03093124 500.01471851 -141.05505908 476.57143453 -176.625 442.3125 C-177.28435547 441.68037598 -177.94371094 441.04825195 -178.62304688 440.39697266 C-188.11130305 431.25252521 -196.8512044 421.95515991 -204.625 411.3125 C-205.48306152 410.16144983 -206.34113451 409.01040823 -207.19921875 407.859375 C-213.23677396 399.66974019 -218.61957302 391.16711724 -223.625 382.3125 C-224.0271875 381.60528809 -224.429375 380.89807617 -224.84375 380.16943359 C-239.59611537 353.96669713 -249.13135806 325.02619203 -253.625 295.3125 C-253.88990234 293.62882324 -253.88990234 293.62882324 -254.16015625 291.91113281 C-255.8170586 280.29802257 -256.02373513 268.78070055 -256 257.0625 C-255.99945618 256.05048523 -255.99891235 255.03847046 -255.99835205 253.99578857 C-255.95761956 237.46719428 -255.05424222 221.53336001 -251.625 205.3125 C-251.40537598 204.27061523 -251.18575195 203.22873047 -250.95947266 202.15527344 C-241.06594376 156.79767952 -219.28588895 113.54975758 -186.625 80.3125 C-185.94920898 79.61237793 -185.27341797 78.91225586 -184.57714844 78.19091797 C-175.13900422 68.41703774 -165.61432932 59.31112308 -154.625 51.3125 C-153.47505169 50.45600934 -152.32531411 49.59923567 -151.17578125 48.7421875 C-142.98565742 42.70215791 -134.48120382 37.31882386 -125.625 32.3125 C-124.91778809 31.9103125 -124.21057617 31.508125 -123.48193359 31.09375 C-97.33439144 16.37245949 -68.31333558 6.67328667 -38.625 2.3125 C-37.42037109 2.13517334 -36.21574219 1.95784668 -34.97460938 1.77514648 C-23.31732646 0.176175 -11.75313902 -0.0459053 0 0 Z M-25.625 127.3125 C-30.63613422 135.3103202 -32.92973732 143.35758668 -31.1640625 152.76953125 C-28.73598764 162.06762969 -24.0189419 168.12867642 -15.83203125 173.125 C-8.14391355 177.26161554 0.94584044 177.55506448 9.37890625 175.625 C18.01104747 172.74361767 24.86750369 168.41666014 29.41015625 160.38671875 C33.20066948 152.23788262 33.16280228 144.30998177 30.4140625 135.87109375 C27.09973631 127.70987702 22.26655331 122.22292734 14.421875 118.34765625 C0.74008767 112.84960468 -16.04966546 115.84815388 -25.625 127.3125 Z M-25.625 213.3125 C-29.98580527 220.47340128 -32.73758516 226.75933501 -32.77217102 235.14833069 C-32.77932632 236.34115662 -32.78648163 237.53398254 -32.79385376 238.76295471 C-32.79654266 240.06844772 -32.79923157 241.37394073 -32.80200195 242.71899414 C-32.80827002 244.11058724 -32.81491712 245.50217868 -32.82191467 246.89376831 C-32.84292357 251.46171918 -32.85331679 256.02967024 -32.86328125 260.59765625 C-32.86733054 262.17367508 -32.87144751 263.74969373 -32.87563133 265.3257122 C-32.89467915 272.73407959 -32.90890882 280.14243707 -32.9172433 287.55082422 C-32.92700267 296.0835979 -32.9532897 304.61611126 -32.99374419 313.14879328 C-33.02398413 319.75536277 -33.03871977 326.361858 -33.04202431 332.96849531 C-33.04436659 336.90868565 -33.05321846 340.84859779 -33.07848549 344.78871346 C-33.10190856 348.50130436 -33.10594303 352.21343673 -33.09572411 355.92608261 C-33.09499917 357.92187705 -33.11399155 359.91764896 -33.13378906 361.91334534 C-33.06909572 373.21042634 -30.55345397 382.96290413 -22.625 391.3125 C-15.02225707 398.38481901 -7.00561982 400.98048348 3.32421875 400.65234375 C12.74743872 399.60263807 20.30572615 395.61919861 26.375 388.3125 C30.73580527 381.15159872 33.48758516 374.86566499 33.52217102 366.47666931 C33.52932632 365.28384338 33.53648163 364.09101746 33.54385376 362.86204529 C33.54654266 361.55655228 33.54923157 360.25105927 33.55200195 358.90600586 C33.55827002 357.51441276 33.56491712 356.12282132 33.57191467 354.73123169 C33.59292357 350.16328082 33.60331679 345.59532976 33.61328125 341.02734375 C33.61733054 339.45132492 33.62144751 337.87530627 33.62563133 336.2992878 C33.64467915 328.89092041 33.65890882 321.48256293 33.6672433 314.07417578 C33.67700267 305.5414021 33.7032897 297.00888874 33.74374419 288.47620672 C33.77398413 281.86963723 33.78871977 275.263142 33.79202431 268.65650469 C33.79436659 264.71631435 33.80321846 260.77640221 33.82848549 256.83628654 C33.85190856 253.12369564 33.85594303 249.41156327 33.84572411 245.69891739 C33.84499917 243.70312295 33.86399155 241.70735104 33.88378906 239.71165466 C33.81909572 228.41457366 31.30345397 218.66209587 23.375 210.3125 C15.77225707 203.24018099 7.75561982 200.64451652 -2.57421875 200.97265625 C-11.99743872 202.02236193 -19.55572615 206.00580139 -25.625 213.3125 Z " fill="#54616F" transform="translate(255.625,-0.3125)"/>
</svg>
