<?xml version="1.0" encoding="UTF-8"?>
<svg version="1.1" xmlns="http://www.w3.org/2000/svg" width="512" height="512">
<path d="M0 0 C25.09896648 25.02053221 35.48041312 56.98209442 35.61352539 91.98803711 C35.61705876 95.04025354 35.60808976 98.09233542 35.59765625 101.14453125 C35.59578514 102.78219051 35.59436452 104.41985035 35.59336853 106.05751038 C35.58959781 110.31360491 35.57981585 114.56966389 35.56866455 118.82574463 C35.55833155 123.19046549 35.55384576 127.55519224 35.54882812 131.91992188 C35.53818719 140.44402651 35.52117851 148.96810255 35.5 157.4921875 C36.15877136 157.48400497 36.81754272 157.47582245 37.49627686 157.46739197 C40.51311873 157.43468948 43.52992314 157.41451484 46.546875 157.39453125 C47.58312012 157.38143921 48.61936523 157.36834717 49.68701172 157.3548584 C64.40570062 157.28179104 75.98925978 162.1578998 86.8125 172.3046875 C99.34894247 185.68714756 101.10251467 201.08141168 101.01757812 218.5703125 C101.02300898 220.46244849 101.03013701 222.35458024 101.03881836 224.2467041 C101.05694011 229.35005714 101.05003052 234.45308406 101.03730202 239.55644226 C101.02711625 244.91817042 101.03658309 250.27987221 101.04284668 255.64160156 C101.05010692 264.64262868 101.04057809 273.64352416 101.02148438 282.64453125 C100.99971883 293.02439551 101.00677135 303.40394539 101.02879 313.78380203 C101.04699036 322.72434794 101.0494797 331.66479966 101.03903532 340.60535812 C101.03282583 345.93263648 101.0318943 351.25976747 101.04518127 356.58703613 C101.05680684 361.59741298 101.04859242 366.60738777 101.02560425 371.61772156 C101.02035279 373.4473555 101.02176918 375.27702377 101.03065491 377.10664368 C101.10727429 394.49740602 97.98214843 408.69039584 85.6875 421.8046875 C72.50696852 434.17566618 56.76494878 436.65278358 39.40679932 436.62590027 C37.77968572 436.6292986 37.77968572 436.6292986 36.11970115 436.63276559 C32.50199031 436.63907187 28.88431727 436.6382784 25.26660156 436.63745117 C22.66570996 436.64044476 20.0648188 436.64384776 17.46392822 436.64762878 C11.14213235 436.65591168 4.82034581 436.65868255 -1.50145504 436.65924116 C-6.64367411 436.65971744 -11.78589012 436.66177778 -16.92810822 436.66494179 C-31.52886537 436.67374191 -46.1296152 436.67836217 -60.73037502 436.67761131 C-61.51641181 436.67757136 -62.3024486 436.6775314 -63.11230469 436.67749023 C-64.29281066 436.67742891 -64.29281066 436.67742891 -65.49716523 436.67736635 C-78.24628011 436.67696006 -90.99536543 436.68652703 -103.74447176 436.7006286 C-116.85635544 436.71501622 -129.96822474 436.72189747 -143.08011651 436.72103482 C-150.43291743 436.72070368 -157.78568736 436.72341449 -165.13848114 436.73421288 C-172.05616063 436.7443077 -178.97377383 436.7439582 -185.8914566 436.73669624 C-188.42416988 436.73565309 -190.95688727 436.73799723 -193.48959351 436.7440567 C-215.63419837 436.7935881 -234.71619808 436.62256171 -251.62109375 420.46484375 C-261.00465902 410.65555908 -265.82539042 398.77764276 -265.76742554 385.25263977 C-265.77195665 384.46276757 -265.77648776 383.67289537 -265.78115618 382.85908765 C-265.79373632 380.23322743 -265.79218396 377.60757632 -265.79052734 374.98168945 C-265.79651666 373.09029374 -265.80332313 371.19890047 -265.81088257 369.30751038 C-265.82851051 364.18329457 -265.83323665 359.05914562 -265.83451414 353.93490243 C-265.83593832 350.72861494 -265.84021303 347.52234431 -265.84550858 344.31606102 C-265.86399955 333.11637676 -265.87218052 321.91674003 -265.87060547 310.71704102 C-265.86940492 300.30037935 -265.89049267 289.88392516 -265.9220928 279.46731597 C-265.94830398 270.50565698 -265.95897071 261.54406555 -265.95769465 252.58236855 C-265.95718636 247.23822649 -265.96279547 241.89426884 -265.98405075 236.55016518 C-266.00351435 231.51936837 -266.00350231 226.48893033 -265.98901749 221.45812035 C-265.98693821 219.62041572 -265.99157722 217.78268815 -266.0037384 215.94502258 C-266.11150212 198.52077969 -263.00827758 184.32185025 -250.6875 171.1796875 C-239.25415988 160.46914474 -226.79966445 157.19005858 -211.54296875 157.390625 C-210.47896851 157.39795654 -209.41496826 157.40528809 -208.31872559 157.4128418 C-205.71232671 157.43186127 -203.10624368 157.45850403 -200.5 157.4921875 C-200.50444122 156.61174271 -200.50888245 155.73129791 -200.51345825 154.82417297 C-200.55393764 146.42780851 -200.5841854 138.03147794 -200.60362434 129.63503742 C-200.61395477 125.32085742 -200.62791103 121.00675965 -200.65087891 116.69262695 C-200.90815217 67.00792364 -200.90815217 67.00792364 -194.5 47.4921875 C-194.15195313 46.42097656 -193.80390625 45.34976563 -193.4453125 44.24609375 C-182.87432964 14.46508343 -160.75977097 -8.6114836 -132.6953125 -22.5703125 C-87.76876875 -43.88718291 -35.77220263 -33.13514923 0 0 Z M-138.9140625 38.27734375 C-153.37867889 56.63627993 -155.6708152 75.68907493 -155.59765625 98.21484375 C-155.59618331 99.73465946 -155.59516477 101.25447567 -155.59460449 102.77429199 C-155.58939235 108.36776497 -155.57543114 113.96122704 -155.5625 119.5546875 C-155.541875 132.0740625 -155.52125 144.5934375 -155.5 157.4921875 C-107.32 157.4921875 -59.14 157.4921875 -9.5 157.4921875 C-9.438125 145.1378125 -9.37625 132.7834375 -9.3125 120.0546875 C-9.28518799 116.18951416 -9.25787598 112.32434082 -9.22973633 108.34204102 C-9.21968783 104.8016931 -9.21968783 104.8016931 -9.21366882 101.26133728 C-9.20913648 99.71455781 -9.19874547 98.16778722 -9.18327332 96.62107849 C-8.95257595 72.28954626 -13.83766668 51.19695906 -30.99609375 32.90625 C-45.55111616 18.87348269 -64.27482124 10.99676195 -84.5390625 11.27734375 C-105.9734185 12.83260705 -124.7557484 21.94258978 -138.9140625 38.27734375 Z M-179.5 282.4921875 C-183.87675349 289.28037542 -185.61884409 294.48576133 -184.12890625 302.484375 C-182.3247601 308.87976204 -177.80817872 312.76043099 -172.5 316.4921875 C-166.02162491 319.38431924 -159.94448038 318.66331083 -153.375 316.4296875 C-148.41837093 313.08935052 -144.64953066 308.89120801 -142.0625 303.4921875 C-140.67678097 296.101686 -141.30130807 291.44419053 -144.8671875 284.83203125 C-148.05580103 280.26270229 -152.24095965 277.24520095 -157.5 275.4921875 C-166.14804294 274.70600178 -173.22416052 276.05119435 -179.5 282.4921875 Z M-100.2734375 284.7109375 C-104.21442335 290.43415261 -104.18368398 295.67287806 -103.5 302.4921875 C-101.72796021 309.24388342 -97.34685523 313.00919757 -91.5 316.4921875 C-86.2404726 319.1219512 -81.10731655 318.9340689 -75.5 317.4921875 C-69.64126015 314.68620757 -65.55069294 311.21223676 -62.5 305.4921875 C-60.67231623 300.00913619 -60.33641247 293.56165115 -62.40625 288.1015625 C-65.51742758 282.87637964 -69.50049938 279.2418962 -74.75 276.1796875 C-85.40803284 273.51517929 -93.42584322 276.29489983 -100.2734375 284.7109375 Z M-18.3125 282.3046875 C-22.32118099 288.14590836 -24.47142516 293.35016024 -23.5 300.4921875 C-22.12038239 306.98011897 -18.8314497 311.57625836 -13.5 315.4921875 C-7.61233911 318.61866436 -1.92748827 319.20225319 4.5 317.4921875 C11.15735138 314.97355763 15.88844345 309.9350583 18.875 303.5546875 C20.38381015 296.16151774 19.70667302 291.44733221 16.12890625 284.83203125 C13.2442522 280.68836752 9.3966787 277.43259221 4.55078125 275.859375 C-4.65462452 274.21116901 -11.64491087 275.63709837 -18.3125 282.3046875 Z " fill="#54626F" transform="translate(338.5,54.5078125)"/>
</svg>
