<?xml version="1.0" encoding="UTF-8"?>
<svg version="1.1" xmlns="http://www.w3.org/2000/svg" width="512" height="512">
<path d="M0 0 C0.97485352 0.19867676 1.94970703 0.39735352 2.95410156 0.60205078 C25.91443493 5.40494095 47.9267882 12.69714133 69 23 C69.71671875 23.34611328 70.4334375 23.69222656 71.171875 24.04882812 C87.49861626 32.01567317 103.23877597 42.12844325 117 54 C118.23268967 55.04992929 119.46579969 56.09936517 120.69921875 57.1484375 C124.14445929 60.08560244 127.57517888 63.03905955 131 66 C136.6664952 61.30255078 141.82422404 56.24740879 146.96875 50.98828125 C148.69095863 49.24369863 150.41362879 47.49957153 152.13671875 45.75585938 C154.82716829 43.02825437 157.51442023 40.2977622 160.19384766 37.55932617 C162.79718318 34.9014668 165.41307592 32.25651406 168.03125 29.61328125 C168.82623901 28.79451004 169.62122803 27.97573883 170.44030762 27.13215637 C175.50074251 22.04814656 179.54864698 18.68720471 186.80859375 17.56640625 C194.2956838 17.5552813 199.53096034 18.65220832 205.01171875 23.94140625 C209.74255836 29.15204704 211.12053218 32.37591488 211.15390015 39.49504089 C211.1582824 40.15757868 211.16266465 40.82011646 211.1671797 41.50273114 C211.18055588 43.72732821 211.18674391 45.95188567 211.19287109 48.17651367 C211.20077305 49.76986876 211.20904206 51.36322206 211.21765137 52.95657349 C211.2438627 58.19368788 211.25917907 63.43081022 211.2734375 68.66796875 C211.27879772 70.47157611 211.28417524 72.27518341 211.28956985 74.07879066 C211.31119812 81.58237992 211.32993407 89.08596704 211.34119225 96.58957958 C211.35742644 107.338655 211.39059188 118.08736866 211.44759309 128.8363077 C211.48631569 136.39651562 211.50582773 143.95662688 211.51111281 151.51693135 C211.51476337 156.03109201 211.52675283 160.54486674 211.55921555 165.05891991 C211.58933681 169.30831926 211.59559376 173.55710001 211.58383179 177.8065834 C211.58361138 179.36259202 211.59188906 180.91862967 211.60948563 182.4745388 C211.70973218 191.85213739 211.24770314 198.52926998 204.55721092 205.50410748 C199.42200922 210.21392094 194.1217822 211.24762642 187.34074402 211.26742554 C186.69676629 211.27195665 186.05278856 211.27648776 185.38929635 211.28115618 C183.24537783 211.29375089 181.10171495 211.29218306 178.95776367 211.29052734 C177.41484757 211.29651571 175.87193446 211.30332196 174.32902527 211.31088257 C170.14707537 211.32851894 165.96520736 211.33323696 161.78322387 211.33451414 C159.16761602 211.33593769 156.55202886 211.34021117 153.93642616 211.34550858 C144.80322579 211.36400137 135.67008371 211.37218017 126.53686523 211.37060547 C118.03670387 211.36940443 109.53679657 211.39050133 101.03669947 211.4220928 C93.72778134 211.44828463 86.41894604 211.45897154 79.10998136 211.45769465 C74.74960822 211.45718585 70.38946095 211.46282344 66.02913475 211.48405075 C61.9258274 211.50348217 57.82296022 211.50352441 53.71963692 211.48901749 C52.21888965 211.48693431 50.71811448 211.4916009 49.21741486 211.5037384 C31.86443463 211.63492962 31.86443463 211.63492962 25.1325407 205.22064781 C20.50464698 200.14882057 18.6916254 196.20758024 18.5625 189.25 C18.52253906 188.07953125 18.48257812 186.9090625 18.44140625 185.703125 C19.8745981 176.20196502 27.7807439 169.81830876 34.33203125 163.375 C35.3344541 162.37818397 36.3362081 161.38069492 37.33732605 160.38256836 C39.95281105 157.77844669 42.57718201 155.18346806 45.20361328 152.59039307 C47.89059828 149.93429412 50.56893469 147.26950437 53.24804688 144.60546875 C58.49034876 139.39518046 63.74208418 134.19453627 69 129 C67.68661814 125.05985443 65.1803951 123.44579414 62 121 C61.37697998 120.51869629 60.75395996 120.03739258 60.11206055 119.54150391 C29.44663739 96.21743839 -5.21961128 83.78426092 -43.8125 83.75 C-44.84086975 83.74898788 -44.84086975 83.74898788 -45.89001465 83.74795532 C-57.48144107 83.76600262 -68.65261271 84.53074631 -80 87 C-80.78197754 87.16628906 -81.56395508 87.33257812 -82.36962891 87.50390625 C-125.48674863 96.97826827 -163.69777696 124.05986404 -187.58154297 161.05004883 C-194.29485347 172.01552064 -199.09401107 184.2048321 -204.1484375 195.99609375 C-204.46603027 196.73424316 -204.78362305 197.47239258 -205.11083984 198.23291016 C-205.68433571 199.57421652 -206.25034876 200.91875898 -206.80712891 202.26708984 C-208.12811091 205.38638348 -209.27160633 207.91817879 -212 210 C-215.47379121 211.1579304 -218.20470317 211.14122491 -221.87060547 211.16113281 C-222.56526917 211.16609772 -223.25993286 211.17106262 -223.97564697 211.17617798 C-226.27283724 211.19077829 -228.56995846 211.19759784 -230.8671875 211.203125 C-232.46517946 211.20887799 -234.0631714 211.21463571 -235.66116333 211.22039795 C-239.01190512 211.23090172 -242.36262297 211.23674854 -245.71337891 211.24023438 C-250.00301716 211.24571933 -254.29233804 211.2697498 -258.58187675 211.29820633 C-261.88303549 211.31684645 -265.18411795 211.32203902 -268.48532486 211.32357025 C-270.06654725 211.32659397 -271.64776839 211.33461304 -273.22893906 211.34775543 C-275.44307238 211.36484597 -277.65643261 211.36292884 -279.87060547 211.35644531 C-281.12952606 211.36009094 -282.38844666 211.36373657 -283.68551636 211.36749268 C-287.2634106 210.97079441 -289.10379161 210.0772574 -292 208 C-292.5775 207.608125 -293.155 207.21625 -293.75 206.8125 C-296.30640538 203.10571219 -296.30413828 198.69555495 -295.53417969 194.40307617 C-294.76854302 191.46822197 -293.90905564 188.58115298 -293 185.6875 C-292.51623901 184.10026123 -292.51623901 184.10026123 -292.02270508 182.48095703 C-280.44305764 145.05071189 -263.11109469 109.69942145 -236 81 C-234.86970833 79.69205429 -233.74456689 78.37963752 -232.625 77.0625 C-224.82177344 68.14452679 -216.30342676 60.32133851 -207 53 C-205.90671354 52.11692256 -204.8142997 51.23276394 -203.72265625 50.34765625 C-171.16585154 24.11606776 -133.9227478 8.03601655 -93 0 C-92.09137207 -0.18079102 -91.18274414 -0.36158203 -90.24658203 -0.54785156 C-61.89749856 -5.86760123 -28.20406017 -5.90724858 0 0 Z " fill="#54616F" transform="translate(301,3)"/>
<path d="M0 0 C0.96596659 -0.00679667 0.96596659 -0.00679667 1.95144767 -0.01373065 C4.09536619 -0.02632535 6.23902907 -0.02475752 8.38298035 -0.02310181 C9.92589645 -0.02909017 11.46880955 -0.03589643 13.01171875 -0.04345703 C17.19366865 -0.0610934 21.37553665 -0.06581143 25.55752015 -0.0670886 C28.173128 -0.06851215 30.78871516 -0.07278563 33.40431786 -0.07808304 C42.53751823 -0.09657583 51.67066031 -0.10475463 60.80387878 -0.10317993 C69.30404015 -0.10197889 77.80394745 -0.1230758 86.30404454 -0.15466726 C93.61296268 -0.1808591 100.92179798 -0.191546 108.23076266 -0.19026911 C112.5911358 -0.18976031 116.95128307 -0.1953979 121.31160927 -0.21662521 C125.41491662 -0.23605664 129.5177838 -0.23609887 133.6211071 -0.22159195 C135.12185436 -0.21950877 136.62262954 -0.22417536 138.12332916 -0.23631287 C155.47630939 -0.36750408 155.47630939 -0.36750408 162.20820332 6.04677773 C166.83609704 11.11860497 168.64911862 15.05984529 168.77824402 22.01742554 C168.81820496 23.18789429 168.85816589 24.35836304 168.89933777 25.56430054 C167.46614592 35.06546052 159.56000011 41.44911677 153.00871277 47.89242554 C152.00628992 48.88924157 151.00453591 49.88673062 150.00341797 50.88485718 C147.38793297 53.48897885 144.76356201 56.08395748 142.13713074 58.67703247 C139.45014574 61.33313142 136.77180932 63.99792116 134.09269714 66.66195679 C128.85039526 71.87224508 123.59865984 77.07288926 118.34074402 82.26742554 C139.75993555 109.41654473 180.80031833 122.35113581 213.65739441 126.87045288 C219.76261706 127.52844268 225.82976195 127.60753806 231.96574402 127.57992554 C233.27390076 127.57501099 234.5820575 127.57009644 235.92985535 127.56503296 C246.63474831 127.43664535 256.88022261 126.52771685 267.34074402 124.26742554 C268.12417175 124.10113647 268.90759949 123.93484741 269.71476746 123.76351929 C312.82977209 114.28769409 351.03957002 87.20593677 374.92228699 50.21737671 C381.63559749 39.25190489 386.43475509 27.06259343 391.48918152 15.27133179 C391.80677429 14.53318237 392.12436707 13.79503296 392.45158386 13.03451538 C393.02507973 11.69320902 393.59109278 10.34866656 394.14787292 9.00033569 C395.46885493 5.88104206 396.61235035 3.34924675 399.34074402 1.26742554 C402.75510286 0.12930592 405.41050219 0.11951224 409.0118866 0.09042358 C409.68543686 0.08385239 410.35898712 0.07728119 411.052948 0.07051086 C413.28039161 0.05081215 415.50776791 0.03912304 417.73527527 0.02914429 C418.49731451 0.02506876 419.25935375 0.02099323 420.04448509 0.0167942 C424.07788699 -0.00405185 428.11125501 -0.01835992 432.1446991 -0.02774048 C436.30430496 -0.03880245 440.46337552 -0.07320352 444.62279224 -0.11291218 C447.82705663 -0.1390929 451.03119372 -0.14743356 454.23555565 -0.15102196 C455.76852217 -0.15588413 457.30148314 -0.16748769 458.83434486 -0.18605995 C460.98379746 -0.21048432 463.13186814 -0.20948141 465.28141785 -0.20254517 C466.50258804 -0.20841141 467.72375824 -0.21427765 468.98193359 -0.22032166 C473.03428987 0.36813829 475.17060243 1.71820886 478.34074402 4.26742554 C481.29905599 8.7048935 480.82292534 12.75060348 479.85392761 17.80844116 C479.14754029 20.73467818 478.35827063 23.62379684 477.52824402 26.51742554 C477.21983582 27.59862671 476.91142761 28.67982788 476.59367371 29.79379272 C465.64082889 66.90173349 447.64768304 101.49172095 421.39152527 130.03305054 C419.47688711 132.1190944 417.62251444 134.24424599 415.77824402 136.39242554 C409.80793325 143.22939432 403.30152537 149.44996093 396.34074402 155.26742554 C395.83720398 155.6900769 395.33366394 156.11272827 394.81486511 156.54818726 C353.16863161 191.29974952 299.88338393 214.19712454 245.11027527 214.47055054 C243.6929435 214.48113998 243.6929435 214.48113998 242.24697876 214.49194336 C203.14350143 214.71788107 203.14350143 214.71788107 186.34074402 211.26742554 C185.32818542 211.06874878 184.31562683 210.87007202 183.27238464 210.66537476 C137.29940677 201.47215644 93.32764947 180.47670791 59.32902527 147.84945679 C57.37296651 145.95611026 57.37296651 145.95611026 54.34074402 146.26742554 C52.23790008 147.95843259 52.23790008 147.95843259 50.07218933 150.25888062 C48.78505035 151.56572563 48.78505035 151.56572563 47.47190857 152.89897156 C46.78731441 153.60453406 46.78731441 153.60453406 46.08889008 154.32435036 C44.65751562 155.79865067 43.21656042 157.26293174 41.77256775 158.72486877 C37.66874535 162.88373027 33.58473694 167.06189852 29.50285339 171.24227905 C27.00511106 173.79892213 24.49748785 176.34554929 21.98407745 178.88678551 C20.56986216 180.32305823 19.16748615 181.77095767 17.7653656 183.21903992 C12.37265267 188.67359646 8.28749874 192.50374018 0.53215027 193.70101929 C-6.95493978 193.71214424 -12.19021632 192.61521721 -17.67097473 187.32601929 C-22.40181434 182.1153785 -23.77978817 178.89151066 -23.81315613 171.77238464 C-23.81753838 171.10984686 -23.82192064 170.44730908 -23.82643569 169.76469439 C-23.83981186 167.54009733 -23.84599989 165.31553987 -23.85212708 163.09091187 C-23.86002904 161.49755678 -23.86829805 159.90420347 -23.87690735 158.31085205 C-23.90311868 153.07373766 -23.91843505 147.83661532 -23.93269348 142.59945679 C-23.93805371 140.79584943 -23.94343122 138.99224213 -23.94882584 137.18863487 C-23.9704541 129.68504561 -23.98919005 122.1814585 -24.00044823 114.67784595 C-24.01668242 103.92877054 -24.04984787 93.18005688 -24.10684907 82.43111783 C-24.14557167 74.87090991 -24.16508372 67.31079866 -24.17036879 59.75049418 C-24.17401935 55.23633353 -24.18600881 50.7225588 -24.21847153 46.20850563 C-24.24859279 41.95910628 -24.25484974 37.71032553 -24.24308777 33.46084213 C-24.24286736 31.90483352 -24.25114504 30.34879586 -24.26874161 28.79288673 C-24.36898816 19.41528815 -23.90695912 12.73815556 -17.2164669 5.76331806 C-12.0812652 1.0535046 -6.78103818 0.01979912 0 0 Z " fill="#54616F" transform="translate(23.659255981445313,297.7325744628906)"/>
</svg>
