<?xml version="1.0" encoding="UTF-8"?>
<svg version="1.1" xmlns="http://www.w3.org/2000/svg" width="512" height="512">
<path d="M0 0 C1.86431582 -0.00435612 3.72862986 -0.00954224 5.59294128 -0.01548767 C10.62216572 -0.02879438 15.65131461 -0.02946551 20.6805532 -0.02692437 C24.89711692 -0.02584864 29.11366574 -0.0307535 33.33022624 -0.03552979 C43.28949829 -0.04659692 53.24873261 -0.04707863 63.20800781 -0.04101562 C73.43889324 -0.03498241 83.66964092 -0.04727677 93.90050286 -0.06858569 C102.72221358 -0.08627545 111.54388074 -0.09219135 120.36560851 -0.08894795 C125.61757872 -0.08714614 130.86945071 -0.08965977 136.12140465 -0.10366249 C141.0668792 -0.11635633 146.01214122 -0.11418901 150.95761299 -0.1012516 C152.75774079 -0.09891092 154.5578841 -0.1015287 156.35799408 -0.10987473 C191.87730945 -0.26249417 225.05596427 11.05992073 252.18481445 34.2746582 C252.99305664 34.96043945 253.80129883 35.6462207 254.6340332 36.3527832 C285.12874166 62.96982857 301.95157352 99.13788933 304.9309082 139.28637695 C305.9894674 157.15934914 302.17307935 173.84420112 290.62231445 187.8996582 C281.30112062 197.78792086 267.29845092 206.75925554 253.40747267 207.40345937 C251.78904287 207.40614223 251.78904287 207.40614223 250.13791752 207.40887928 C248.89091479 207.41333712 247.64391207 207.41779497 246.35912138 207.4223879 C244.97281777 207.4222986 243.58651416 207.42210875 242.20021057 207.42182922 C240.72934384 207.42512881 239.25847801 207.42885458 237.78761333 207.4329707 C233.73998391 207.44298834 229.69236932 207.44670713 225.64472926 207.44936001 C221.28117723 207.45326386 216.91763694 207.46284227 212.55409241 207.47157288 C202.01203958 207.49133683 191.46998579 207.50140422 180.92791906 207.51030067 C175.96206135 207.5146844 170.9962047 207.52005105 166.03034782 207.52528954 C149.51944608 207.5423031 133.008545 207.55679628 116.49763584 207.56403828 C112.21277935 207.56594814 107.92792287 207.56786848 103.64306641 207.56982422 C102.57809836 207.57030796 101.51313031 207.5707917 100.41589051 207.5712901 C83.17220132 207.57958665 65.92858158 207.60491667 48.6849227 207.6374049 C30.97630757 207.6704967 13.2677277 207.68848903 -4.44091851 207.69168252 C-14.38159463 207.69384584 -24.32216952 207.70256828 -34.26281548 207.72814369 C-42.73074591 207.7498798 -51.19855052 207.75788686 -59.66650569 207.74817691 C-63.9840855 207.7436404 -68.30140587 207.74548038 -72.61894989 207.76493835 C-76.57890626 207.78262992 -80.5384151 207.78152423 -84.49837662 207.76604106 C-85.92378722 207.76367401 -87.34922931 207.76794129 -88.77459197 207.77986971 C-106.18940303 207.91647056 -121.01751502 202.43917208 -133.7878418 190.4309082 C-146.10265958 177.33306733 -151.19181428 161.04023618 -150.86181641 143.31982422 C-149.91495919 119.0679937 -143.38922914 96.5264006 -131.81518555 75.2746582 C-131.23768555 74.19313477 -130.66018555 73.11161133 -130.06518555 71.99731445 C-126.03884737 64.75549787 -121.25157051 58.51132318 -115.81518555 52.2746582 C-115.10491211 51.44192383 -114.39463867 50.60918945 -113.6628418 49.7512207 C-105.14938334 39.99076381 -95.75857011 31.25145781 -84.81518555 24.2746582 C-83.18709961 23.21311523 -83.18709961 23.21311523 -81.52612305 22.13012695 C-56.58414761 6.25641175 -29.29858605 -0.04560498 0 0 Z " fill="#54616F" transform="translate(178.815185546875,304.725341796875)"/>
<path d="M0 0 C1.0506514 0.00031723 1.0506514 0.00031723 2.12252808 0.00064087 C13.9641691 0.03619225 25.07579254 1.16109767 36.5 4.375 C38.38332031 4.86613281 38.38332031 4.86613281 40.3046875 5.3671875 C56.2487729 10.06469223 71.87764843 18.58729255 84.5 29.375 C85.49 30.21546875 86.48 31.0559375 87.5 31.921875 C113.13528082 54.2633512 130.04088199 86.2547376 132.5 120.375 C134.20908054 156.09340494 125.08847351 189.89978938 101.5 217.375 C100.778125 218.21933594 100.05625 219.06367188 99.3125 219.93359375 C94.39879111 225.53829295 89.28945154 230.67722247 83.5 235.375 C82.07880859 236.52935547 82.07880859 236.52935547 80.62890625 237.70703125 C65.53583906 249.43312964 47.20680664 257.58566208 28.5 261.375 C27.62843262 261.55611328 26.75686523 261.73722656 25.85888672 261.92382812 C17.57769378 263.48584539 9.4106675 263.77354045 1 263.75 C-0.0506514 263.74968277 -0.0506514 263.74968277 -1.12252808 263.74935913 C-12.9641691 263.71380775 -24.07579254 262.58890233 -35.5 259.375 C-36.75554687 259.04757812 -38.01109375 258.72015625 -39.3046875 258.3828125 C-55.85593204 253.50642432 -71.49015995 244.64089367 -84.5 233.375 C-85.00821289 232.94219727 -85.51642578 232.50939453 -86.04003906 232.06347656 C-111.4830679 210.28017045 -128.04779009 179.16655041 -131.33227539 145.70654297 C-133.94606527 109.37220045 -124.45815086 74.28080072 -100.5 46.375 C-99.4171875 45.10849609 -99.4171875 45.10849609 -98.3125 43.81640625 C-93.39879111 38.21170705 -88.28945154 33.07277753 -82.5 28.375 C-81.55253906 27.60542969 -80.60507813 26.83585937 -79.62890625 26.04296875 C-64.53583906 14.31687036 -46.20680664 6.16433792 -27.5 2.375 C-26.19264893 2.10333008 -26.19264893 2.10333008 -24.85888672 1.82617188 C-16.57769378 0.26415461 -8.4106675 -0.02354045 0 0 Z " fill="#54616F" transform="translate(255.5,-0.375)"/>
</svg>
