<?xml version="1.0" encoding="UTF-8"?>
<svg version="1.1" xmlns="http://www.w3.org/2000/svg" width="35" height="35">
<path d="M0 0 C0.28875 0.639375 0.5775 1.27875 0.875 1.9375 C1.82823451 4.15206079 1.82823451 4.15206079 4 5 C4.73075648 7.3140622 5.40138258 9.64828869 6 12 C4.36587557 13.70840281 3.13093906 14.93453047 1 16 C1.680625 16.309375 2.36125 16.61875 3.0625 16.9375 C5 19 5 19 5.2890625 20.9921875 C5.08458503 25.66371113 4.16737702 28.42261317 0.6875 31.625 C-1.11328125 33.1015625 -1.11328125 33.1015625 -3 34 C-5.31598388 33.68203561 -6.91142366 33.04428817 -9 32 C-10.60507957 32.03124934 -12.2095806 32.09858243 -13.8125 32.1875 C-17.3417568 32.20790033 -18.84703638 32.07804266 -22.0625 30.4375 C-24.53706269 27.32434049 -24.63839898 24.90529107 -25 21 C-25.66 20.34 -26.32 19.68 -27 19 C-26.9375 16.125 -26.9375 16.125 -26 13 C-24.36739286 11.62517293 -22.69774938 10.29352333 -21 9 C-20.505 7.96875 -20.01 6.9375 -19.5 5.875 C-18 3 -18 3 -15.6875 1.5625 C-12.51597746 0.89869296 -10.16762802 1.44910817 -7 2 C-4 0 -4 0 0 0 Z M-11 5 C-10 7 -10 7 -10 7 Z M-12 7 C-11 9 -11 9 -11 9 Z M-14 14 C-13 16 -13 16 -13 16 Z M-23 19 C-19 20 -19 20 -19 20 Z M-5 21 C-4 23 -4 23 -4 23 Z M-6 23 C-5 25 -5 25 -5 25 Z M-8 26 C-7 28 -7 28 -7 28 Z " fill="#697581" transform="translate(28,1)"/>
<path d="M0 0 C-0.495 0.721875 -0.99 1.44375 -1.5 2.1875 C-3.22285274 4.83751915 -3.22285274 4.83751915 -2.875 7.5 C-3 10 -3 10 -5.1875 12.5625 C-6.115625 13.366875 -7.04375 14.17125 -8 15 C-8.825 15.78375 -9.65 16.5675 -10.5 17.375 C-13 19 -13 19 -15.8125 18.75 C-16.534375 18.5025 -17.25625 18.255 -18 18 C-18.75 15.8125 -18.75 15.8125 -19 13 C-17.33131855 10.49697783 -15.53719747 8.51653603 -13.375 6.4375 C-11.87137606 5.03536976 -11.87137606 5.03536976 -11.125 2.9375 C-10 1 -10 1 -7.6875 -0.3125 C-4.7076274 -1.07479299 -2.9290363 -0.83686751 0 0 Z " fill="#78828D" transform="translate(20,3)"/>
<path d="M0 0 C0.28875 0.639375 0.5775 1.27875 0.875 1.9375 C1.82823451 4.15206079 1.82823451 4.15206079 4 5 C4.73075648 7.3140622 5.40138258 9.64828869 6 12 C4.32614504 14.03446037 3.4428201 14.91948725 0.80859375 15.3984375 C-0.36509766 15.38683594 -0.36509766 15.38683594 -1.5625 15.375 C-2.74005859 15.38660156 -2.74005859 15.38660156 -3.94140625 15.3984375 C-4.62074219 15.26695313 -5.30007812 15.13546875 -6 15 C-6.66 14.01 -7.32 13.02 -8 12 C-8.99 12 -9.98 12 -11 12 C-10.76291095 5.95422917 -10.76291095 5.95422917 -8.73828125 3.421875 C-5.60054577 0.67141669 -4.25119369 0 0 0 Z " fill="#616D7A" transform="translate(28,1)"/>
<path d="M0 0 C0.556875 0.144375 1.11375 0.28875 1.6875 0.4375 C4.01712446 1.0407416 4.01712446 1.0407416 6.5 1.375 C9.54897975 2.13724494 10.99368325 2.53068707 13 5 C13.4394449 8.24170225 13.08753661 10.92038913 12 14 C10.02461071 16.57726572 7.94594383 18.5971696 5 20 C2.76953125 19.6484375 2.76953125 19.6484375 1 19 C0.3125 16.8125 0.3125 16.8125 0 14 C0.96885372 12.31503702 1.96986723 10.64821244 3 9 C3.25196129 6.29046449 3.25196129 6.29046449 3 4 C2.01 3.67 1.02 3.34 0 3 C0 2.01 0 1.02 0 0 Z " fill="#757F8B" transform="translate(20,15)"/>
<path d="M0 0 C0.556875 0.144375 1.11375 0.28875 1.6875 0.4375 C4.11384195 1.02769128 6.54906345 1.523429 9 2 C8.01 2.495 8.01 2.495 7 3 C7 3.99 7 4.98 7 6 C5.68 6.33 4.36 6.66 3 7 C3 6.01 3 5.02 3 4 C2.01 3.67 1.02 3.34 0 3 C0 2.01 0 1.02 0 0 Z " fill="#D3D6DA" transform="translate(20,15)"/>
<path d="M0 0 C0.33 1.32 0.66 2.64 1 4 C0.34 4 -0.32 4 -1 4 C-1 3.01 -1 2.02 -1 1 C-4.96 4.465 -4.96 4.465 -9 8 C-9.33 7.01 -9.66 6.02 -10 5 C-4.5 0 -4.5 0 0 0 Z " fill="#9AA2AA" transform="translate(28,1)"/>
</svg>
